<?xml version="1.0" encoding="UTF-8"?>
<!DOCTYPE svg PUBLIC "-//W3C//DTD SVG 1.1//EN" "http://www.w3.org/Graphics/SVG/1.1/DTD/svg11.dtd">
<svg xmlns="http://www.w3.org/2000/svg" version="1.1" width="200px" height="225px" style="shape-rendering:geometricPrecision; text-rendering:geometricPrecision; image-rendering:optimizeQuality; fill-rule:evenodd; clip-rule:evenodd" xmlns:xlink="http://www.w3.org/1999/xlink">
<g><path style="opacity:0.933" fill="#7fc9e0" d="M 134.5,-0.5 C 135.167,-0.5 135.833,-0.5 136.5,-0.5C 137.355,0.530694 138.022,1.69736 138.5,3C 137.5,4.66667 136.5,6.33333 135.5,8C 137.105,9.92197 136.772,11.0886 134.5,11.5C 134.5,10.8333 134.167,10.5 133.5,10.5C 133.5,9.83333 133.167,9.5 132.5,9.5C 132.5,8.16667 132.5,6.83333 132.5,5.5C 135.379,4.1974 136.045,2.1974 134.5,-0.5 Z"/></g>
<g><path style="opacity:1" fill="#faf7f7" d="M 122.5,12.5 C 128.174,27.3097 125.508,40.4764 114.5,52C 117.319,51.5078 119.986,51.6744 122.5,52.5C 117.355,53.9033 113.021,56.5699 109.5,60.5C 106.499,54.7051 106.833,49.2051 110.5,44C 108.402,44.0322 106.402,44.6989 104.5,46C 102.286,48.9254 99.9528,51.7587 97.5,54.5C 95.9077,50.9109 93.9077,47.5776 91.5,44.5C 91.5,42.5 91.5,40.5 91.5,38.5C 90.209,38.2627 89.209,38.596 88.5,39.5C 84.6137,40.3832 81.947,42.7166 80.5,46.5C 79.8326,43.3583 79.166,40.3583 78.5,37.5C 80.1693,33.9067 81.336,33.9067 82,37.5C 83.5967,34.7808 85.7634,32.6141 88.5,31C 94.19,29.6342 99.5233,27.4675 104.5,24.5C 105.562,25.4246 105.562,26.4246 104.5,27.5C 93.7547,35.3692 94.4214,36.3692 106.5,30.5C 115.772,26.6336 119.939,19.6336 119,9.5C 120.518,10.1634 121.685,11.1634 122.5,12.5 Z"/></g>
<g><path style="opacity:0.937" fill="#e11a1d" d="M 113.5,20.5 C 111.348,25.7565 109.015,25.7565 106.5,20.5C 104.048,22.3929 101.381,23.7263 98.5,24.5C 48.7334,28.0927 17.5667,54.0927 5,102.5C 1.465,124.776 4.965,145.776 15.5,165.5C 15.5,166.167 15.8333,166.5 16.5,166.5C 16.1218,168.921 15.4552,171.254 14.5,173.5C 7.14336,161.763 2.14336,149.097 -0.5,135.5C -0.5,125.167 -0.5,114.833 -0.5,104.5C 8.09142,63.4002 32.4248,36.2336 72.5,23C 86.024,19.5341 99.6907,18.7007 113.5,20.5 Z"/></g>
<g><path style="opacity:0.96" fill="#e2181c" d="M 138.5,27.5 C 171.875,42.8707 192.208,68.5374 199.5,104.5C 199.5,114.833 199.5,125.167 199.5,135.5C 196.685,149.27 191.685,162.27 184.5,174.5C 183.883,174.389 183.383,174.056 183,173.5C 182.505,171.527 182.338,169.527 182.5,167.5C 201.65,128.545 198.15,91.8783 172,57.5C 161.71,46.7084 149.877,38.0417 136.5,31.5C 136.994,29.9745 137.661,28.6412 138.5,27.5 Z"/></g>
<g><path style="opacity:1" fill="#a1abc1" d="M 122.5,12.5 C 126.405,15.7264 129.071,19.7264 130.5,24.5C 130.5,28.5 130.5,32.5 130.5,36.5C 128.521,41.2733 125.854,45.7733 122.5,50C 123.448,50.4828 124.448,50.6495 125.5,50.5C 124.833,51.1667 124.167,51.8333 123.5,52.5C 123.167,52.5 122.833,52.5 122.5,52.5C 119.986,51.6744 117.319,51.5078 114.5,52C 125.508,40.4764 128.174,27.3097 122.5,12.5 Z"/></g>
<g><path style="opacity:1" fill="#a3abbf" d="M 104.5,27.5 C 104.285,29.1788 104.952,30.1788 106.5,30.5C 94.4214,36.3692 93.7547,35.3692 104.5,27.5 Z"/></g>
<g><path style="opacity:1" fill="#1b1915" d="M 78.5,29.5 C 79.552,29.3505 80.552,29.5172 81.5,30C 73.9965,36.5144 71.1632,44.6811 73,54.5C 73.8623,58.9194 75.0289,63.2527 76.5,67.5C 75.7255,69.3964 74.7255,71.063 73.5,72.5C 73.1436,70.8102 72.1436,69.8102 70.5,69.5C 69.71,70.6085 69.21,71.9419 69,73.5C 68.8142,71.0995 68.3142,68.7662 67.5,66.5C 61.4126,75.0056 57.2459,84.3389 55,94.5C 54.1667,93.5 53.3333,92.5 52.5,91.5C 45.9643,108.542 47.7977,124.542 58,139.5C 64.2439,144.872 71.4106,148.539 79.5,150.5C 80.2975,150.957 80.6309,151.624 80.5,152.5C 76.0029,153.055 71.8362,152.389 68,150.5C 67.7216,151.416 67.2216,152.082 66.5,152.5C 65.2365,150.57 63.5699,148.903 61.5,147.5C 61.1667,147.667 60.8333,147.833 60.5,148C 62.0368,149.11 62.7035,150.61 62.5,152.5C 61.8333,153.833 61.1667,153.833 60.5,152.5C 55.9502,149.773 53.1169,145.773 52,140.5C 51.6667,136.167 51.3333,131.833 51,127.5C 50.1628,125.156 48.8294,123.156 47,121.5C 47.3298,128.784 47.9965,136.117 49,143.5C 49.9064,146.31 51.0731,148.976 52.5,151.5C 41.5813,152.477 30.5813,152.81 19.5,152.5C 19.1489,155.238 18.4822,157.904 17.5,160.5C 17.7093,161.086 18.0426,161.586 18.5,162C 17.9011,163.622 17.2344,165.122 16.5,166.5C 15.8333,166.5 15.5,166.167 15.5,165.5C 16.5983,164.399 16.765,163.066 16,161.5C -4.29644,110.741 7.87023,69.9075 52.5,39C 60.725,34.317 69.3917,31.1503 78.5,29.5 Z"/></g>
<g><path style="opacity:1" fill="#1b1915" d="M 131.5,19.5 C 132.404,20.209 132.737,21.209 132.5,22.5C 133.08,26.1419 133.58,29.8086 134,33.5C 166.266,47.4453 185.6,71.7787 192,106.5C 194.16,127.167 190.326,146.5 180.5,164.5C 179.704,160.147 178.371,155.98 176.5,152C 163.5,151.667 150.5,151.333 137.5,151C 145.473,150.174 145.473,149.674 137.5,149.5C 142.829,149.582 147.329,147.582 151,143.5C 152.239,137.944 152.906,132.278 153,126.5C 154.181,122.637 156.014,119.137 158.5,116C 157.551,115.383 156.718,115.549 156,116.5C 151.373,122.663 149.373,129.663 150,137.5C 149.29,138.973 148.124,139.64 146.5,139.5C 146.698,137.425 146.865,135.425 147,133.5C 143.473,136.468 142.473,140.134 144,144.5C 140.291,146.121 136.458,147.621 132.5,149C 131.177,149.816 130.511,150.983 130.5,152.5C 129.778,152.082 129.278,151.416 129,150.5C 126.619,151.435 124.119,151.768 121.5,151.5C 122.694,150.728 123.694,149.728 124.5,148.5C 125.936,147.571 127.269,146.405 128.5,145C 127.5,144.667 126.5,144.333 125.5,144C 135.547,137.79 142.881,129.29 147.5,118.5C 146.726,117.289 145.893,117.289 145,118.5C 145.805,110.789 143.305,104.455 137.5,99.5C 139.978,95.8783 141.311,91.8783 141.5,87.5C 140.5,87.5 139.5,87.5 138.5,87.5C 138.737,88.791 138.404,89.791 137.5,90.5C 137.223,81.9069 134.056,74.2402 128,67.5C 127.178,69.7885 126.511,72.1218 126,74.5C 122.176,76.6941 119.342,75.5274 117.5,71C 118.196,69.1072 119.03,67.2738 120,65.5C 127.22,59.5658 132.053,52.0658 134.5,43C 133.354,42.2406 132.354,41.5739 131.5,41C 133.092,38.3778 133.259,35.8778 132,33.5C 131.768,34.7375 131.268,35.7375 130.5,36.5C 130.5,32.5 130.5,28.5 130.5,24.5C 131.301,22.9582 131.634,21.2915 131.5,19.5 Z"/></g>
<g><path style="opacity:1" fill="#7bc5d8" d="M 60.5,38.5 C 61.6702,41.8514 63.1702,45.1847 65,48.5C 65.8902,51.7055 65.5569,54.7055 64,57.5C 64.1218,52.9789 62.7885,48.9789 60,45.5C 59.2967,43.0709 59.4634,40.7375 60.5,38.5 Z"/></g>
<g><path style="opacity:1" fill="#1a191b" d="M 131.5,19.5 C 131.634,21.2915 131.301,22.9582 130.5,24.5C 129.071,19.7264 126.405,15.7264 122.5,12.5C 121.685,11.1634 120.518,10.1634 119,9.5C 119.939,19.6336 115.772,26.6336 106.5,30.5C 104.952,30.1788 104.285,29.1788 104.5,27.5C 105.562,26.4246 105.562,25.4246 104.5,24.5C 99.5233,27.4675 94.19,29.6342 88.5,31C 85.7634,32.6141 83.5967,34.7808 82,37.5C 81.336,33.9067 80.1693,33.9067 78.5,37.5C 74.2932,47.2187 74.9599,56.5521 80.5,65.5C 80.4614,66.7562 80.9614,67.7562 82,68.5C 83.0486,65.8133 84.5486,63.48 86.5,61.5C 87.1667,62.8333 88.1667,63.8333 89.5,64.5C 89.8459,66.3628 90.8459,67.1961 92.5,67C 94.8077,64.8723 96.4744,62.3723 97.5,59.5C 98.0024,57.9153 99.0024,57.4153 100.5,58C 103.564,60.2072 105.564,63.0406 106.5,66.5C 107.052,68.7029 108.385,69.5362 110.5,69C 117.838,63.3272 124.172,56.6605 129.5,49C 127.934,48.7003 126.601,49.2003 125.5,50.5C 124.448,50.6495 123.448,50.4828 122.5,50C 125.854,45.7733 128.521,41.2733 130.5,36.5C 131.268,35.7375 131.768,34.7375 132,33.5C 133.259,35.8778 133.092,38.3778 131.5,41C 132.354,41.5739 133.354,42.2406 134.5,43C 132.053,52.0658 127.22,59.5658 120,65.5C 119.03,67.2738 118.196,69.1072 117.5,71C 119.342,75.5274 122.176,76.6941 126,74.5C 126.511,72.1218 127.178,69.7885 128,67.5C 134.056,74.2402 137.223,81.9069 137.5,90.5C 136.657,94.5216 134.99,98.1883 132.5,101.5C 133.861,104.416 133.195,106.749 130.5,108.5C 128.689,106.615 127.522,104.281 127,101.5C 125.667,104.167 124.333,104.167 123,101.5C 121.956,99.2852 121.29,96.9519 121,94.5C 119.725,99.2456 117.891,99.5789 115.5,95.5C 120.167,91.8333 124.833,88.1667 129.5,84.5C 132.38,88.1247 133.213,92.1247 132,96.5C 133.095,95.3066 133.928,93.9733 134.5,92.5C 135.508,86.1475 133.841,80.4809 129.5,75.5C 123.723,81.5465 117.389,86.8798 110.5,91.5C 108.368,87.7036 106.701,88.0369 105.5,92.5C 104.883,92.6107 104.383,92.944 104,93.5C 102.454,90.5606 100.621,87.8939 98.5,85.5C 98.1034,84.475 97.4368,84.3083 96.5,85C 94.372,86.7918 93.0387,88.9584 92.5,91.5C 92.6747,89.3792 92.3414,87.3792 91.5,85.5C 93.1857,83.9835 95.019,82.6502 97,81.5C 98.4397,82.1476 99.9397,82.4809 101.5,82.5C 102.801,83.8816 103.634,85.5483 104,87.5C 105.129,85.8588 106.629,84.8588 108.5,84.5C 110.011,86.4411 112.011,86.9411 114.5,86C 116.5,84 118.5,82 120.5,80C 116.199,78.1999 113.532,75.0332 112.5,70.5C 111.893,70.6236 111.56,70.9569 111.5,71.5C 110.833,71.8333 110.167,72.1667 109.5,72.5C 107.856,72.7135 106.356,72.3802 105,71.5C 104.61,68.8958 103.776,66.5625 102.5,64.5C 101.998,62.9153 100.998,62.4153 99.5,63C 97.3323,65.9981 94.9989,68.8314 92.5,71.5C 90.264,70.6109 88.264,69.2776 86.5,67.5C 85.7025,67.9569 85.3691,68.6236 85.5,69.5C 84.3994,70.8484 83.3994,72.3484 82.5,74C 80.4325,74.6869 78.4325,74.5202 76.5,73.5C 75.7025,73.9569 75.3691,74.6236 75.5,75.5C 74.5987,74.7095 73.9321,73.7095 73.5,72.5C 74.7255,71.063 75.7255,69.3964 76.5,67.5C 75.0289,63.2527 73.8623,58.9194 73,54.5C 71.1632,44.6811 73.9965,36.5144 81.5,30C 80.552,29.5172 79.552,29.3505 78.5,29.5C 83.5686,27.9006 88.9019,27.0673 94.5,27C 96.0664,26.3918 97.3998,25.5585 98.5,24.5C 101.381,23.7263 104.048,22.3929 106.5,20.5C 109.015,25.7565 111.348,25.7565 113.5,20.5C 114.585,14.3414 114.585,8.34142 113.5,2.5C 122.145,5.4809 128.145,11.1476 131.5,19.5 Z"/></g>
<g><path style="opacity:1" fill="#f07a7b" d="M 88.5,39.5 C 89.209,38.596 90.209,38.2627 91.5,38.5C 91.5,40.5 91.5,42.5 91.5,44.5C 91.0276,42.4687 90.0276,40.8021 88.5,39.5 Z"/></g>
<g><path style="opacity:1" fill="#e01a1c" d="M 78.5,37.5 C 79.166,40.3583 79.8326,43.3583 80.5,46.5C 81.947,42.7166 84.6137,40.3832 88.5,39.5C 90.0276,40.8021 91.0276,42.4687 91.5,44.5C 93.9077,47.5776 95.9077,50.9109 97.5,54.5C 99.9528,51.7587 102.286,48.9254 104.5,46C 106.402,44.6989 108.402,44.0322 110.5,44C 106.833,49.2051 106.499,54.7051 109.5,60.5C 113.021,56.5699 117.355,53.9033 122.5,52.5C 122.833,52.5 123.167,52.5 123.5,52.5C 122.608,56.8917 119.942,59.3917 115.5,60C 113.147,63.1662 110.147,65.3328 106.5,66.5C 105.564,63.0406 103.564,60.2072 100.5,58C 99.0024,57.4153 98.0024,57.9153 97.5,59.5C 94.8159,61.1933 92.1492,62.86 89.5,64.5C 88.1667,63.8333 87.1667,62.8333 86.5,61.5C 86.1034,60.475 85.4368,60.3083 84.5,61C 82.9297,62.3968 81.5964,63.8968 80.5,65.5C 74.9599,56.5521 74.2932,47.2187 78.5,37.5 Z"/></g>
<g><path style="opacity:1" fill="#74160e" d="M 97.5,59.5 C 96.4744,62.3723 94.8077,64.8723 92.5,67C 90.8459,67.1961 89.8459,66.3628 89.5,64.5C 92.1492,62.86 94.8159,61.1933 97.5,59.5 Z"/></g>
<g><path style="opacity:1" fill="#76160e" d="M 86.5,61.5 C 84.5486,63.48 83.0486,65.8133 82,68.5C 80.9614,67.7562 80.4614,66.7562 80.5,65.5C 81.5964,63.8968 82.9297,62.3968 84.5,61C 85.4368,60.3083 86.1034,60.475 86.5,61.5 Z"/></g>
<g><path style="opacity:1" fill="#dc161a" d="M 102.5,64.5 C 102.5,67.5 102.5,70.5 102.5,73.5C 105.059,73.8016 107.393,73.4682 109.5,72.5C 110.167,72.1667 110.833,71.8333 111.5,71.5C 111.608,73.2091 111.775,75.2091 112,77.5C 116.207,81.5884 115.04,83.9217 108.5,84.5C 108.189,83.5222 107.522,82.8555 106.5,82.5C 104.872,83.5353 103.205,83.5353 101.5,82.5C 100.608,80.2858 98.9418,79.2858 96.5,79.5C 94.0595,81.2709 91.3928,82.6043 88.5,83.5C 83.3212,82.0834 78.9879,79.4168 75.5,75.5C 75.3691,74.6236 75.7025,73.9569 76.5,73.5C 78.4325,74.5202 80.4325,74.6869 82.5,74C 83.3994,72.3484 84.3994,70.8484 85.5,69.5C 87.4509,70.7158 88.9509,72.3825 90,74.5C 90.6979,73.3094 91.5313,72.3094 92.5,71.5C 94.9989,68.8314 97.3323,65.9981 99.5,63C 100.998,62.4153 101.998,62.9153 102.5,64.5 Z"/></g>
<g><path style="opacity:1" fill="#74170e" d="M 106.5,66.5 C 110.147,65.3328 113.147,63.1662 115.5,60C 119.942,59.3917 122.608,56.8917 123.5,52.5C 124.167,51.8333 124.833,51.1667 125.5,50.5C 126.601,49.2003 127.934,48.7003 129.5,49C 124.172,56.6605 117.838,63.3272 110.5,69C 108.385,69.5362 107.052,68.7029 106.5,66.5 Z"/></g>
<g><path style="opacity:1" fill="#7f1710" d="M 92.5,71.5 C 91.5313,72.3094 90.6979,73.3094 90,74.5C 88.9509,72.3825 87.4509,70.7158 85.5,69.5C 85.3691,68.6236 85.7025,67.9569 86.5,67.5C 88.264,69.2776 90.264,70.6109 92.5,71.5 Z"/></g>
<g><path style="opacity:1" fill="#681711" d="M 102.5,64.5 C 103.776,66.5625 104.61,68.8958 105,71.5C 106.356,72.3802 107.856,72.7135 109.5,72.5C 107.393,73.4682 105.059,73.8016 102.5,73.5C 102.5,70.5 102.5,67.5 102.5,64.5 Z"/></g>
<g><path style="opacity:1" fill="#7ec0d1" d="M 70.5,69.5 C 72.1436,69.8102 73.1436,70.8102 73.5,72.5C 73.9321,73.7095 74.5987,74.7095 75.5,75.5C 78.9879,79.4168 83.3212,82.0834 88.5,83.5C 89.2905,84.4013 90.2905,85.0679 91.5,85.5C 92.3414,87.3792 92.6747,89.3792 92.5,91.5C 92.2503,93.674 91.2503,95.3406 89.5,96.5C 88.8333,95.5 88.1667,94.5 87.5,93.5C 84.5723,91.9134 81.9056,89.9134 79.5,87.5C 83.1823,87.5907 86.349,88.924 89,91.5C 89.7939,87.7786 88.2939,85.4453 84.5,84.5C 83.609,83.8902 82.609,83.5569 81.5,83.5C 79.7952,81.8079 77.7952,80.4746 75.5,79.5C 72.0703,77.0646 70.4037,73.7313 70.5,69.5 Z"/></g>
<g><path style="opacity:1" fill="#73160e" d="M 111.5,71.5 C 111.56,70.9569 111.893,70.6236 112.5,70.5C 113.532,75.0332 116.199,78.1999 120.5,80C 118.5,82 116.5,84 114.5,86C 112.011,86.9411 110.011,86.4411 108.5,84.5C 115.04,83.9217 116.207,81.5884 112,77.5C 111.775,75.2091 111.608,73.2091 111.5,71.5 Z"/></g>
<g><path style="opacity:1" fill="#76160e" d="M 67.5,104.5 C 67.7058,102.451 68.5391,102.117 70,103.5C 72.1672,101.17 73.8338,98.5032 75,95.5C 76.3427,99.3609 77.8427,99.3609 79.5,95.5C 74.5641,91.9037 69.8974,87.9037 65.5,83.5C 64.4824,85.5939 63.4824,87.5939 62.5,89.5C 62.1262,86.0283 63.1262,83.0283 65.5,80.5C 70.8953,85.9008 76.562,90.9008 82.5,95.5C 80.517,97.9837 78.3504,100.317 76,102.5C 75.586,102.043 75.086,101.709 74.5,101.5C 73.0623,104.993 70.729,105.993 67.5,104.5 Z"/></g>
<g><path style="opacity:1" fill="#78160e" d="M 134.5,92.5 C 133.928,93.9733 133.095,95.3066 132,96.5C 133.213,92.1247 132.38,88.1247 129.5,84.5C 124.833,88.1667 120.167,91.8333 115.5,95.5C 117.891,99.5789 119.725,99.2456 121,94.5C 121.29,96.9519 121.956,99.2852 123,101.5C 124.333,104.167 125.667,104.167 127,101.5C 127.522,104.281 128.689,106.615 130.5,108.5C 129.766,109.708 129.433,111.041 129.5,112.5C 128.264,110.389 126.764,108.389 125,106.5C 124.586,106.957 124.086,107.291 123.5,107.5C 122.59,105.345 121.423,103.345 120,101.5C 119.667,102.5 119.333,103.5 119,104.5C 116.537,101.035 113.704,97.8688 110.5,95C 117.853,91.4776 124.186,86.6443 129.5,80.5C 132.293,84.0787 133.959,88.0787 134.5,92.5 Z"/></g>
<g><path style="opacity:1" fill="#de171b" d="M 79.5,87.5 C 81.9056,89.9134 84.5723,91.9134 87.5,93.5C 85.1987,99.1699 86.6987,103.503 92,106.5C 90.0115,103.669 89.1781,100.336 89.5,96.5C 91.2503,95.3406 92.2503,93.674 92.5,91.5C 93.0387,88.9584 94.372,86.7918 96.5,85C 97.4368,84.3083 98.1034,84.475 98.5,85.5C 97.5715,90.5748 99.5715,93.9082 104.5,95.5C 105.386,94.675 105.719,93.675 105.5,92.5C 106.701,88.0369 108.368,87.7036 110.5,91.5C 117.389,86.8798 123.723,81.5465 129.5,75.5C 133.841,80.4809 135.508,86.1475 134.5,92.5C 133.959,88.0787 132.293,84.0787 129.5,80.5C 124.186,86.6443 117.853,91.4776 110.5,95C 113.704,97.8688 116.537,101.035 119,104.5C 119.333,103.5 119.667,102.5 120,101.5C 121.423,103.345 122.59,105.345 123.5,107.5C 124.086,107.291 124.586,106.957 125,106.5C 126.764,108.389 128.264,110.389 129.5,112.5C 129.5,113.833 129.5,115.167 129.5,116.5C 127.763,118.88 125.43,120.547 122.5,121.5C 122.251,120.418 122.085,119.085 122,117.5C 117.818,121.86 112.985,125.193 107.5,127.5C 107.196,126.85 106.863,126.183 106.5,125.5C 107.77,124.712 108.77,123.712 109.5,122.5C 109.833,122.5 110.167,122.5 110.5,122.5C 112.371,122.141 113.871,121.141 115,119.5C 116.109,116.132 117.942,113.298 120.5,111C 115.297,112.023 110.797,114.523 107,118.5C 106.107,117.289 105.274,117.289 104.5,118.5C 102.738,122.708 103.738,126.042 107.5,128.5C 108.649,133.245 108.649,137.745 107.5,142C 106.627,143.045 105.627,143.878 104.5,144.5C 102.319,142.909 99.9861,141.576 97.5,140.5C 95.2345,141.432 93.2345,142.765 91.5,144.5C 90.5041,144.586 89.6708,144.252 89,143.5C 87.0149,139.794 86.1816,135.794 86.5,131.5C 87.8202,129.537 89.1535,127.537 90.5,125.5C 91.3414,123.621 91.6747,121.621 91.5,119.5C 91.0175,117.13 89.8508,116.463 88,117.5C 86.549,115.536 84.7157,114.203 82.5,113.5C 81.8333,113.5 81.1667,113.5 80.5,113.5C 78.9793,111.471 76.9793,110.638 74.5,111C 77.3346,115.645 80.668,119.979 84.5,124C 85.448,124.483 86.448,124.649 87.5,124.5C 87.7373,125.791 87.404,126.791 86.5,127.5C 81.6153,124.957 77.282,121.623 73.5,117.5C 73.1667,118.833 72.8333,120.167 72.5,121.5C 67.2019,119.2 63.2019,115.533 60.5,110.5C 61.5832,110.539 62.5832,110.873 63.5,111.5C 64.8518,109.155 66.1851,106.822 67.5,104.5C 70.729,105.993 73.0623,104.993 74.5,101.5C 75.086,101.709 75.586,102.043 76,102.5C 78.3504,100.317 80.517,97.9837 82.5,95.5C 76.562,90.9008 70.8953,85.9008 65.5,80.5C 63.1262,83.0283 62.1262,86.0283 62.5,89.5C 62.8511,91.8695 63.0178,94.2028 63,96.5C 59.1835,89.0183 60.0169,82.0183 65.5,75.5C 69.8918,79.8972 74.5584,83.8972 79.5,87.5 Z"/></g>
<g><path style="opacity:1" fill="#75160e" d="M 101.5,82.5 C 103.205,83.5353 104.872,83.5353 106.5,82.5C 107.522,82.8555 108.189,83.5222 108.5,84.5C 106.629,84.8588 105.129,85.8588 104,87.5C 103.634,85.5483 102.801,83.8816 101.5,82.5 Z"/></g>
<g><path style="opacity:1" fill="#781810" d="M 81.5,83.5 C 82.609,83.5569 83.609,83.8902 84.5,84.5C 82.8333,87.1667 81.1667,87.1667 79.5,84.5C 80.4916,84.6716 81.1583,84.3382 81.5,83.5 Z"/></g>
<g><path style="opacity:1" fill="#dd1d1d" d="M 75.5,79.5 C 77.7952,80.4746 79.7952,81.8079 81.5,83.5C 81.1583,84.3382 80.4916,84.6716 79.5,84.5C 78.1147,83.3862 76.6147,82.3862 75,81.5C 74.3083,80.5632 74.475,79.8966 75.5,79.5 Z"/></g>
<g><path style="opacity:1" fill="#7c160e" d="M 101.5,82.5 C 99.9397,82.4809 98.4397,82.1476 97,81.5C 95.019,82.6502 93.1857,83.9835 91.5,85.5C 90.2905,85.0679 89.2905,84.4013 88.5,83.5C 91.3928,82.6043 94.0595,81.2709 96.5,79.5C 98.9418,79.2858 100.608,80.2858 101.5,82.5 Z"/></g>
<g><path style="opacity:1" fill="#1c1a1c" d="M 70.5,69.5 C 70.4037,73.7313 72.0703,77.0646 75.5,79.5C 74.475,79.8966 74.3083,80.5632 75,81.5C 76.6147,82.3862 78.1147,83.3862 79.5,84.5C 81.1667,87.1667 82.8333,87.1667 84.5,84.5C 88.2939,85.4453 89.7939,87.7786 89,91.5C 86.349,88.924 83.1823,87.5907 79.5,87.5C 74.5584,83.8972 69.8918,79.8972 65.5,75.5C 60.0169,82.0183 59.1835,89.0183 63,96.5C 63.0178,94.2028 62.8511,91.8695 62.5,89.5C 63.4824,87.5939 64.4824,85.5939 65.5,83.5C 69.8974,87.9037 74.5641,91.9037 79.5,95.5C 77.8427,99.3609 76.3427,99.3609 75,95.5C 73.8338,98.5032 72.1672,101.17 70,103.5C 68.5391,102.117 67.7058,102.451 67.5,104.5C 66.1851,106.822 64.8518,109.155 63.5,111.5C 62.5832,110.873 61.5832,110.539 60.5,110.5C 59.9569,110.56 59.6236,110.893 59.5,111.5C 60.8611,113.85 62.1944,116.184 63.5,118.5C 67.4203,124.633 72.7536,129.133 79.5,132C 75.6742,132.687 75.6742,133.52 79.5,134.5C 80.1667,135.833 81.1667,136.833 82.5,137.5C 83.8589,142.573 86.8589,146.24 91.5,148.5C 95.1667,148.5 98.8333,148.5 102.5,148.5C 108.529,146.134 112.529,141.8 114.5,135.5C 115.167,135.167 115.833,134.833 116.5,134.5C 120.371,133.14 120.038,132.306 115.5,132C 121.809,129.02 127.142,124.854 131.5,119.5C 132.807,116.886 134.14,114.22 135.5,111.5C 135.03,110.537 134.363,110.537 133.5,111.5C 132.833,111.5 132.167,111.5 131.5,111.5C 132.833,109.833 134.167,108.167 135.5,106.5C 138.401,114.634 136.067,121.467 128.5,127C 130.488,127.18 132.488,127.014 134.5,126.5C 130.438,130.709 125.772,134.209 120.5,137C 117.167,140.333 113.833,143.667 110.5,147C 111.416,147.278 112.082,147.778 112.5,148.5C 112.167,149.5 111.5,150.167 110.5,150.5C 110.167,150.5 109.833,150.5 109.5,150.5C 102.866,151.205 96.1989,151.872 89.5,152.5C 89.719,151.325 89.3857,150.325 88.5,149.5C 87.1667,150.833 85.8333,150.833 84.5,149.5C 83.6143,150.325 83.281,151.325 83.5,152.5C 82.5,152.5 81.5,152.5 80.5,152.5C 80.6309,151.624 80.2975,150.957 79.5,150.5C 71.4106,148.539 64.2439,144.872 58,139.5C 47.7977,124.542 45.9643,108.542 52.5,91.5C 53.3333,92.5 54.1667,93.5 55,94.5C 57.2459,84.3389 61.4126,75.0056 67.5,66.5C 68.3142,68.7662 68.8142,71.0995 69,73.5C 69.21,71.9419 69.71,70.6085 70.5,69.5 Z"/></g>
<g><path style="opacity:1" fill="#7d160f" d="M 98.5,85.5 C 100.621,87.8939 102.454,90.5606 104,93.5C 104.383,92.944 104.883,92.6107 105.5,92.5C 105.719,93.675 105.386,94.675 104.5,95.5C 99.5715,93.9082 97.5715,90.5748 98.5,85.5 Z"/></g>
<g><path style="opacity:1" fill="#a59fab" d="M 87.5,93.5 C 88.1667,94.5 88.8333,95.5 89.5,96.5C 89.1781,100.336 90.0115,103.669 92,106.5C 86.6987,103.503 85.1987,99.1699 87.5,93.5 Z"/></g>
<g><path style="opacity:1" fill="#d8161b" d="M 59.5,96.5 C 58.5909,101.207 57.5909,106.041 56.5,111C 58.7627,121.418 63.7627,130.252 71.5,137.5C 74.1354,138.811 76.4687,140.478 78.5,142.5C 78.631,143.239 78.4643,143.906 78,144.5C 73.3885,143.13 68.8885,141.463 64.5,139.5C 61.4042,138.24 59.0708,136.074 57.5,133C 58.1667,132.667 58.8333,132.333 59.5,132C 52.1456,122.096 50.1456,111.262 53.5,99.5C 54.4255,100.641 55.2588,100.641 56,99.5C 56.4728,97.221 57.4728,95.221 59,93.5C 59.4828,94.448 59.6495,95.448 59.5,96.5 Z"/></g>
<g><path style="opacity:1" fill="#7cbccc" d="M 137.5,99.5 C 136.539,101.265 136.205,103.265 136.5,105.5C 135.833,105.5 135.5,105.833 135.5,106.5C 134.167,108.167 132.833,109.833 131.5,111.5C 130.566,112.568 130.232,113.901 130.5,115.5C 130.5,116.167 130.167,116.5 129.5,116.5C 129.5,115.167 129.5,113.833 129.5,112.5C 129.433,111.041 129.766,109.708 130.5,108.5C 133.195,106.749 133.861,104.416 132.5,101.5C 134.99,98.1883 136.657,94.5216 137.5,90.5C 138.404,89.791 138.737,88.791 138.5,87.5C 139.5,87.5 140.5,87.5 141.5,87.5C 141.311,91.8783 139.978,95.8783 137.5,99.5 Z"/></g>
<g><path style="opacity:1" fill="#dc161b" d="M 137.5,99.5 C 143.305,104.455 145.805,110.789 145,118.5C 145.893,117.289 146.726,117.289 147.5,118.5C 142.881,129.29 135.547,137.79 125.5,144C 126.5,144.333 127.5,144.667 128.5,145C 127.269,146.405 125.936,147.571 124.5,148.5C 120.532,149.475 116.532,150.475 112.5,151.5C 111.584,151.457 110.917,151.124 110.5,150.5C 111.5,150.167 112.167,149.5 112.5,148.5C 117.787,141.384 124.454,135.884 132.5,132C 135.694,129.851 137.528,127.018 138,123.5C 136.961,124.71 135.794,125.71 134.5,126.5C 135.989,123.522 137.489,120.522 139,117.5C 139.867,113.044 139.534,108.711 138,104.5C 137.617,105.056 137.117,105.389 136.5,105.5C 136.205,103.265 136.539,101.265 137.5,99.5 Z"/></g>
<g><path style="opacity:1" fill="#85c1d1" d="M 98.5,24.5 C 97.3998,25.5585 96.0664,26.3918 94.5,27C 88.9019,27.0673 83.5686,27.9006 78.5,29.5C 69.3917,31.1503 60.725,34.317 52.5,39C 7.87023,69.9075 -4.29644,110.741 16,161.5C 16.765,163.066 16.5983,164.399 15.5,165.5C 4.965,145.776 1.465,124.776 5,102.5C 17.5667,54.0927 48.7334,28.0927 98.5,24.5 Z"/></g>
<g><path style="opacity:1" fill="#6dabb9" d="M 34.5,109.5 C 35.8003,114.345 38.6336,118.345 43,121.5C 43.6667,122.167 43.6667,122.833 43,123.5C 40,120.833 37,118.167 34,115.5C 33.3224,113.402 33.4891,111.402 34.5,109.5 Z"/></g>
<g><path style="opacity:1" fill="#76160e" d="M 134.5,126.5 C 132.488,127.014 130.488,127.18 128.5,127C 136.067,121.467 138.401,114.634 135.5,106.5C 135.5,105.833 135.833,105.5 136.5,105.5C 137.117,105.389 137.617,105.056 138,104.5C 139.534,108.711 139.867,113.044 139,117.5C 137.489,120.522 135.989,123.522 134.5,126.5 Z"/></g>
<g><path style="opacity:1" fill="#f4eff1" d="M 60.5,110.5 C 63.2019,115.533 67.2019,119.2 72.5,121.5C 72.8333,120.167 73.1667,118.833 73.5,117.5C 77.282,121.623 81.6153,124.957 86.5,127.5C 86.5,128.833 86.5,130.167 86.5,131.5C 86.1816,135.794 87.0149,139.794 89,143.5C 89.6708,144.252 90.5041,144.586 91.5,144.5C 91.811,145.478 92.4777,146.145 93.5,146.5C 96.3047,146.362 99.1381,146.362 102,146.5C 103.301,146.361 104.134,145.695 104.5,144.5C 105.627,143.878 106.627,143.045 107.5,142C 108.649,137.745 108.649,133.245 107.5,128.5C 107.5,128.167 107.5,127.833 107.5,127.5C 112.985,125.193 117.818,121.86 122,117.5C 122.085,119.085 122.251,120.418 122.5,121.5C 125.43,120.547 127.763,118.88 129.5,116.5C 130.167,116.5 130.5,116.167 130.5,115.5C 132.262,114.738 133.262,113.404 133.5,111.5C 134.363,110.537 135.03,110.537 135.5,111.5C 134.14,114.22 132.807,116.886 131.5,119.5C 124.869,123.781 118.202,128.114 111.5,132.5C 113.291,133.17 114.958,133.837 116.5,134.5C 115.833,134.833 115.167,135.167 114.5,135.5C 110.723,140.065 106.723,144.398 102.5,148.5C 98.8333,148.5 95.1667,148.5 91.5,148.5C 88.7286,144.61 85.7286,140.943 82.5,137.5C 81.1667,136.833 80.1667,135.833 79.5,134.5C 80.7175,133.839 82.0508,133.172 83.5,132.5C 76.5207,128.172 69.854,123.506 63.5,118.5C 62.1944,116.184 60.8611,113.85 59.5,111.5C 59.6236,110.893 59.9569,110.56 60.5,110.5 Z"/></g>
<g><path style="opacity:1" fill="#3d2320" d="M 80.5,113.5 C 79.9569,113.56 79.6236,113.893 79.5,114.5C 80.9308,117.039 82.5975,119.372 84.5,121.5C 86.4531,122.835 88.4531,124.168 90.5,125.5C 89.1535,127.537 87.8202,129.537 86.5,131.5C 86.5,130.167 86.5,128.833 86.5,127.5C 87.404,126.791 87.7373,125.791 87.5,124.5C 86.448,124.649 85.448,124.483 84.5,124C 80.668,119.979 77.3346,115.645 74.5,111C 76.9793,110.638 78.9793,111.471 80.5,113.5 Z"/></g>
<g><path style="opacity:1" fill="#8f1611" d="M 82.5,113.5 C 84.7157,114.203 86.549,115.536 88,117.5C 89.8508,116.463 91.0175,117.13 91.5,119.5C 90.0357,120.405 88.7024,120.405 87.5,119.5C 85.8333,117.5 84.1667,115.5 82.5,113.5 Z"/></g>
<g><path style="opacity:1" fill="#721d18" d="M 131.5,111.5 C 132.167,111.5 132.833,111.5 133.5,111.5C 133.262,113.404 132.262,114.738 130.5,115.5C 130.232,113.901 130.566,112.568 131.5,111.5 Z"/></g>
<g><path style="opacity:1" fill="#312122" d="M 80.5,113.5 C 81.1667,113.5 81.8333,113.5 82.5,113.5C 84.1667,115.5 85.8333,117.5 87.5,119.5C 86.448,119.649 85.448,119.483 84.5,119C 83.3353,117.008 82.002,115.175 80.5,113.5 Z"/></g>
<g><path style="opacity:1" fill="#aaadae" d="M 80.5,113.5 C 82.002,115.175 83.3353,117.008 84.5,119C 85.448,119.483 86.448,119.649 87.5,119.5C 87.1788,121.048 86.1788,121.715 84.5,121.5C 82.5975,119.372 80.9308,117.039 79.5,114.5C 79.6236,113.893 79.9569,113.56 80.5,113.5 Z"/></g>
<g><path style="opacity:1" fill="#261919" d="M 87.5,119.5 C 88.7024,120.405 90.0357,120.405 91.5,119.5C 91.6747,121.621 91.3414,123.621 90.5,125.5C 88.4531,124.168 86.4531,122.835 84.5,121.5C 86.1788,121.715 87.1788,121.048 87.5,119.5 Z"/></g>
<g><path style="opacity:1" fill="#a1abc2" d="M 131.5,119.5 C 127.142,124.854 121.809,129.02 115.5,132C 120.038,132.306 120.371,133.14 116.5,134.5C 114.958,133.837 113.291,133.17 111.5,132.5C 118.202,128.114 124.869,123.781 131.5,119.5 Z"/></g>
<g><path style="opacity:1" fill="#391a17" d="M 110.5,122.5 C 111.823,120.529 113.156,118.529 114.5,116.5C 114.167,116.167 113.833,115.833 113.5,115.5C 112.482,116.193 111.482,116.859 110.5,117.5C 109.128,118.512 107.795,119.512 106.5,120.5C 106.821,122.048 107.821,122.715 109.5,122.5C 108.77,123.712 107.77,124.712 106.5,125.5C 106.863,126.183 107.196,126.85 107.5,127.5C 107.5,127.833 107.5,128.167 107.5,128.5C 103.738,126.042 102.738,122.708 104.5,118.5C 105.274,117.289 106.107,117.289 107,118.5C 110.797,114.523 115.297,112.023 120.5,111C 117.942,113.298 116.109,116.132 115,119.5C 113.871,121.141 112.371,122.141 110.5,122.5 Z"/></g>
<g><path style="opacity:1" fill="#979a9c" d="M 110.5,122.5 C 110.167,122.5 109.833,122.5 109.5,122.5C 107.821,122.715 106.821,122.048 106.5,120.5C 107.833,120.5 109.167,120.5 110.5,120.5C 110.5,119.5 110.5,118.5 110.5,117.5C 111.482,116.859 112.482,116.193 113.5,115.5C 113.833,115.833 114.167,116.167 114.5,116.5C 113.156,118.529 111.823,120.529 110.5,122.5 Z"/></g>
<g><path style="opacity:1" fill="#171618" d="M 110.5,117.5 C 110.5,118.5 110.5,119.5 110.5,120.5C 109.167,120.5 107.833,120.5 106.5,120.5C 107.795,119.512 109.128,118.512 110.5,117.5 Z"/></g>
<g><path style="opacity:1" fill="#a5aec5" d="M 63.5,118.5 C 69.854,123.506 76.5207,128.172 83.5,132.5C 82.0508,133.172 80.7175,133.839 79.5,134.5C 75.6742,133.52 75.6742,132.687 79.5,132C 72.7536,129.133 67.4203,124.633 63.5,118.5 Z"/></g>
<g><path style="opacity:1" fill="#79160e" d="M 112.5,148.5 C 112.082,147.778 111.416,147.278 110.5,147C 113.833,143.667 117.167,140.333 120.5,137C 125.772,134.209 130.438,130.709 134.5,126.5C 135.794,125.71 136.961,124.71 138,123.5C 137.528,127.018 135.694,129.851 132.5,132C 124.454,135.884 117.787,141.384 112.5,148.5 Z"/></g>
<g><path style="opacity:1" fill="#76160e" d="M 59.5,96.5 C 60.2436,100.119 60.577,103.785 60.5,107.5C 59.5,107.5 58.5,107.5 57.5,107.5C 59.6797,119.018 65.3463,128.518 74.5,136C 73.2625,136.232 72.2625,136.732 71.5,137.5C 63.7627,130.252 58.7627,121.418 56.5,111C 57.5909,106.041 58.5909,101.207 59.5,96.5 Z"/></g>
<g><path style="opacity:1" fill="#7bc4d6" d="M 137.5,149.5 C 135.085,150.305 132.751,151.305 130.5,152.5C 130.511,150.983 131.177,149.816 132.5,149C 136.458,147.621 140.291,146.121 144,144.5C 142.473,140.134 143.473,136.468 147,133.5C 146.865,135.425 146.698,137.425 146.5,139.5C 148.124,139.64 149.29,138.973 150,137.5C 149.373,129.663 151.373,122.663 156,116.5C 156.718,115.549 157.551,115.383 158.5,116C 156.014,119.137 154.181,122.637 153,126.5C 152.906,132.278 152.239,137.944 151,143.5C 147.329,147.582 142.829,149.582 137.5,149.5 Z"/></g>
<g><path style="opacity:1" fill="#78bfd1" d="M 60.5,152.5 C 57.7212,152.721 55.0545,152.388 52.5,151.5C 51.0731,148.976 49.9064,146.31 49,143.5C 47.9965,136.117 47.3298,128.784 47,121.5C 48.8294,123.156 50.1628,125.156 51,127.5C 51.3333,131.833 51.6667,136.167 52,140.5C 53.1169,145.773 55.9502,149.773 60.5,152.5 Z"/></g>
<g><path style="opacity:1" fill="#83c2d2" d="M 132.5,5.5 C 131.167,6.83333 131.167,8.16667 132.5,9.5C 133.167,9.5 133.5,9.83333 133.5,10.5C 134.167,10.5 134.5,10.8333 134.5,11.5C 136.465,13.7682 137.632,16.4349 138,19.5C 139.627,17.688 141.127,17.5213 142.5,19C 139.157,20.8576 137.823,23.6909 138.5,27.5C 137.661,28.6412 136.994,29.9745 136.5,31.5C 149.877,38.0417 161.71,46.7084 172,57.5C 198.15,91.8783 201.65,128.545 182.5,167.5C 181.094,167.027 180.427,166.027 180.5,164.5C 190.326,146.5 194.16,127.167 192,106.5C 185.6,71.7787 166.266,47.4453 134,33.5C 133.58,29.8086 133.08,26.1419 132.5,22.5C 133.634,20.0336 133.801,17.367 133,14.5C 130.987,12.4675 129.487,10.1342 128.5,7.5C 128.529,5.97065 129.196,4.80399 130.5,4C 131.816,3.47189 132.483,3.97189 132.5,5.5 Z"/></g>
<g><path style="opacity:1" fill="#222123" d="M 104.5,144.5 C 104.134,145.695 103.301,146.361 102,146.5C 99.1381,146.362 96.3047,146.362 93.5,146.5C 92.4777,146.145 91.811,145.478 91.5,144.5C 93.2345,142.765 95.2345,141.432 97.5,140.5C 99.9861,141.576 102.319,142.909 104.5,144.5 Z"/></g>
<g><path style="opacity:1" fill="#9ba6bf" d="M 114.5,135.5 C 112.529,141.8 108.529,146.134 102.5,148.5C 106.723,144.398 110.723,140.065 114.5,135.5 Z"/></g>
<g><path style="opacity:1" fill="#9ba5bd" d="M 82.5,137.5 C 85.7286,140.943 88.7286,144.61 91.5,148.5C 86.8589,146.24 83.8589,142.573 82.5,137.5 Z"/></g>
<g><path style="opacity:1" fill="#77170f" d="M 64.5,139.5 C 68.8885,141.463 73.3885,143.13 78,144.5C 78.4643,143.906 78.631,143.239 78.5,142.5C 82.9163,146.678 82.2497,148.178 76.5,147C 71.626,145.738 67.626,143.238 64.5,139.5 Z"/></g>
<g><path style="opacity:1" fill="#71b4c2" d="M 66.5,152.5 C 65.1667,152.5 63.8333,152.5 62.5,152.5C 62.7035,150.61 62.0368,149.11 60.5,148C 60.8333,147.833 61.1667,147.667 61.5,147.5C 63.5699,148.903 65.2365,150.57 66.5,152.5 Z"/></g>
<g><path style="opacity:1" fill="#731710" d="M 124.5,148.5 C 123.694,149.728 122.694,150.728 121.5,151.5C 119.217,152.029 116.883,152.363 114.5,152.5C 112.36,152.444 110.694,151.777 109.5,150.5C 109.833,150.5 110.167,150.5 110.5,150.5C 110.917,151.124 111.584,151.457 112.5,151.5C 116.532,150.475 120.532,149.475 124.5,148.5 Z"/></g>
<g><path style="opacity:1" fill="#8e1616" d="M 89.5,152.5 C 87.5,152.5 85.5,152.5 83.5,152.5C 83.281,151.325 83.6143,150.325 84.5,149.5C 85.8333,150.833 87.1667,150.833 88.5,149.5C 89.3857,150.325 89.719,151.325 89.5,152.5 Z"/></g>
<g><path style="opacity:0.987" fill="#13120e" d="M 137.5,149.5 C 145.473,149.674 145.473,150.174 137.5,151C 150.5,151.333 163.5,151.667 176.5,152C 178.371,155.98 179.704,160.147 180.5,164.5C 180.427,166.027 181.094,167.027 182.5,167.5C 182.338,169.527 182.505,171.527 183,173.5C 183.383,174.056 183.883,174.389 184.5,174.5C 188.242,186.726 191.576,199.059 194.5,211.5C 189.018,212.204 183.684,213.537 178.5,215.5C 165.544,214.211 152.544,213.211 139.5,212.5C 135.939,211.77 132.273,211.103 128.5,210.5C 127.551,209.848 126.385,209.514 125,209.5C 106.558,213.829 88.2251,213.496 70,208.5C 68.9701,208.836 68.4701,209.503 68.5,210.5C 65.3447,210.99 62.3447,211.656 59.5,212.5C 41.1956,214.588 22.8623,215.254 4.5,214.5C 7.36954,200.689 10.7029,187.023 14.5,173.5C 15.4552,171.254 16.1218,168.921 16.5,166.5C 17.2344,165.122 17.9011,163.622 18.5,162C 18.0426,161.586 17.7093,161.086 17.5,160.5C 18.4822,157.904 19.1489,155.238 19.5,152.5C 30.5813,152.81 41.5813,152.477 52.5,151.5C 55.0545,152.388 57.7212,152.721 60.5,152.5C 61.1667,153.833 61.8333,153.833 62.5,152.5C 63.8333,152.5 65.1667,152.5 66.5,152.5C 67.2216,152.082 67.7216,151.416 68,150.5C 71.8362,152.389 76.0029,153.055 80.5,152.5C 81.5,152.5 82.5,152.5 83.5,152.5C 85.5,152.5 87.5,152.5 89.5,152.5C 96.1989,151.872 102.866,151.205 109.5,150.5C 110.694,151.777 112.36,152.444 114.5,152.5C 116.883,152.363 119.217,152.029 121.5,151.5C 124.119,151.768 126.619,151.435 129,150.5C 129.278,151.416 129.778,152.082 130.5,152.5C 132.751,151.305 135.085,150.305 137.5,149.5 Z"/></g>
<g><path style="opacity:1" fill="#3c5a5f" d="M 27.5,158.5 C 40.3226,157.505 53.3226,157.171 66.5,157.5C 66.7373,158.791 66.404,159.791 65.5,160.5C 53.2108,158.52 40.5441,157.853 27.5,158.5 Z"/></g>
<g><path style="opacity:1" fill="#3d5c61" d="M 141.5,158.5 C 135.642,158.178 129.975,158.511 124.5,159.5C 123.957,159.44 123.624,159.107 123.5,158.5C 129.654,157.183 135.654,157.183 141.5,158.5 Z"/></g>
<g><path style="opacity:1" fill="#7dc8db" d="M 80.5,157.5 C 88.5069,157.334 96.5069,157.5 104.5,158C 109.352,158.412 113.519,160.246 117,163.5C 118.33,169.452 118.663,175.452 118,181.5C 117.5,182 117,182.5 116.5,183C 100.158,185.758 83.8246,186.092 67.5,184C 66.1059,183.044 65.4393,181.711 65.5,180C 66.2917,174.415 67.4583,168.915 69,163.5C 72.3077,160.265 76.1411,158.265 80.5,157.5 Z"/></g>
<g><path style="opacity:1" fill="#7dc9dc" d="M 27.5,158.5 C 40.5441,157.853 53.2108,158.52 65.5,160.5C 65.5,161.5 65.5,162.5 65.5,163.5C 57.8261,163.334 50.1594,163.5 42.5,164C 40.6654,168.004 39.3321,172.17 38.5,176.5C 46.3875,174.934 54.3875,173.934 62.5,173.5C 62.7394,175.467 62.4061,177.301 61.5,179C 53.4027,179.238 45.4027,180.238 37.5,182C 35.3196,185.886 33.9862,190.053 33.5,194.5C 26.9649,195.851 20.7982,198.184 15,201.5C 14.784,196.853 15.6173,192.353 17.5,188C 16.2985,185.766 14.9652,183.599 13.5,181.5C 15.4648,180.708 17.4648,180.041 19.5,179.5C 21.9476,172.296 24.6143,165.296 27.5,158.5 Z"/></g>
<g><path style="opacity:1" fill="#7dc9dc" d="M 141.5,158.5 C 142.663,162.482 143.829,166.482 145,170.5C 158.005,175.722 161.505,171.888 155.5,159C 161.196,158.17 166.863,158.337 172.5,159.5C 174.923,164.65 176.423,169.983 177,175.5C 174.863,176.479 173.029,177.812 171.5,179.5C 174.751,181.375 177.918,183.375 181,185.5C 183.774,190.614 184.941,195.947 184.5,201.5C 178.667,198.777 172.667,196.444 166.5,194.5C 166.246,188.74 163.246,185.24 157.5,184C 154.518,183.502 151.518,183.335 148.5,183.5C 148.833,185.5 149.167,187.5 149.5,189.5C 142.832,188.5 136.165,187.5 129.5,186.5C 128.793,183.214 128.46,179.881 128.5,176.5C 131.673,176.599 134.673,175.932 137.5,174.5C 133.558,172.942 129.724,171.275 126,169.5C 125.752,166.081 125.252,162.747 124.5,159.5C 129.975,158.511 135.642,158.178 141.5,158.5 Z"/></g>
<g><path style="opacity:1" fill="#121310" d="M 87.5,162.5 C 91.4367,162.207 95.27,162.54 99,163.5C 99.4994,168.823 99.666,174.156 99.5,179.5C 94.9533,180.676 90.4533,180.676 86,179.5C 85.3333,174.5 85.3333,169.5 86,164.5C 86.7172,163.956 87.2172,163.289 87.5,162.5 Z"/></g>
<g><path style="opacity:1" fill="#d91718" d="M 74.5,188.5 C 95.1902,188.177 115.857,188.677 136.5,190C 139.647,193.981 142.98,197.814 146.5,201.5C 114.865,201.341 83.1988,201.508 51.5,202C 54.8333,198 58.1667,194 61.5,190C 66.0195,189.825 70.3528,189.325 74.5,188.5 Z"/></g>
<g><path style="opacity:1" fill="#e73232" d="M 96.5,191.5 C 102.167,190.167 107.833,190.167 113.5,191.5C 112.167,191.5 110.833,191.5 109.5,191.5C 109.192,193.924 109.526,196.257 110.5,198.5C 111.183,198.137 111.85,197.804 112.5,197.5C 111.486,198.765 109.986,199.431 108,199.5C 106.293,199.492 104.793,199.158 103.5,198.5C 105.117,197.411 105.95,195.744 106,193.5C 106.202,195.256 106.702,196.922 107.5,198.5C 108.474,196.257 108.808,193.924 108.5,191.5C 105.833,192.833 103.167,192.833 100.5,191.5C 99.9898,194.388 100.656,196.721 102.5,198.5C 100.167,199.833 97.8333,199.833 95.5,198.5C 96.8333,198.5 98.1667,198.5 99.5,198.5C 99.5,196.167 99.5,193.833 99.5,191.5C 98.5,191.5 97.5,191.5 96.5,191.5 Z"/></g>
<g><path style="opacity:1" fill="#fccdce" d="M 115.5,191.5 C 117.036,193.025 118.036,195.025 118.5,197.5C 119.466,195.604 119.799,193.604 119.5,191.5C 124.7,190.994 127.7,191.327 128.5,192.5C 128.5,193.5 128.5,194.5 128.5,195.5C 132.311,195.596 132.311,196.262 128.5,197.5C 129.376,198.251 130.376,198.751 131.5,199C 129.866,199.494 128.199,199.66 126.5,199.5C 126.535,190.44 125.535,190.44 123.5,199.5C 122.186,190.259 121.52,190.259 121.5,199.5C 119.533,199.739 117.699,199.406 116,198.5C 115.503,196.19 115.337,193.857 115.5,191.5 Z"/></g>
<g><path style="opacity:1" fill="#fcdedf" d="M 66.5,191.5 C 68.1644,192.949 68.9977,194.949 69,197.5C 69.1922,195.423 69.6922,193.423 70.5,191.5C 71.48,194.086 71.8134,196.753 71.5,199.5C 70.1667,199.5 68.8333,199.5 67.5,199.5C 66.612,196.946 66.2786,194.279 66.5,191.5 Z"/></g>
<g><path style="opacity:1" fill="#fdf0f1" d="M 82.5,191.5 C 80.0182,193.039 80.0182,194.539 82.5,196C 81.2644,197.085 79.9311,197.918 78.5,198.5C 78.5,196.167 78.5,193.833 78.5,191.5C 79.8333,191.5 81.1667,191.5 82.5,191.5 Z"/></g>
<g><path style="opacity:1" fill="#fef8f8" d="M 90.5,191.5 C 91.552,191.351 92.552,191.517 93.5,192C 90.8333,194 90.8333,196 93.5,198C 92.552,198.483 91.552,198.649 90.5,198.5C 90.5,198.167 90.5,197.833 90.5,197.5C 90.5,195.5 90.5,193.5 90.5,191.5 Z"/></g>
<g><path style="opacity:1" fill="#ffd2cf" d="M 96.5,191.5 C 97.5,191.5 98.5,191.5 99.5,191.5C 99.5,193.833 99.5,196.167 99.5,198.5C 98.1667,198.5 96.8333,198.5 95.5,198.5C 93.9139,195.784 94.2472,193.45 96.5,191.5 Z"/></g>
<g><path style="opacity:1" fill="#fcddde" d="M 103.5,198.5 C 103.167,191.833 102.833,191.833 102.5,198.5C 100.656,196.721 99.9898,194.388 100.5,191.5C 103.167,192.833 105.833,192.833 108.5,191.5C 108.808,193.924 108.474,196.257 107.5,198.5C 106.702,196.922 106.202,195.256 106,193.5C 105.95,195.744 105.117,197.411 103.5,198.5 Z"/></g>
<g><path style="opacity:1" fill="#fdd6d6" d="M 113.5,191.5 C 114.865,193.751 114.531,195.751 112.5,197.5C 111.85,197.804 111.183,198.137 110.5,198.5C 109.526,196.257 109.192,193.924 109.5,191.5C 110.833,191.5 112.167,191.5 113.5,191.5 Z"/></g>
<g><path style="opacity:1" fill="#fde6e7" d="M 65.5,191.5 C 65.6495,192.552 65.4828,193.552 65,194.5C 64.2825,193.549 63.4491,193.383 62.5,194C 65.0823,195.338 65.7489,197.171 64.5,199.5C 63.0222,199.762 61.6888,199.429 60.5,198.5C 61.6034,198.002 62.6034,197.669 63.5,197.5C 59.1705,193.822 59.8372,191.822 65.5,191.5 Z"/></g>
<g><path style="opacity:1" fill="#fcd0d0" d="M 72.5,191.5 C 74.9484,191.01 76.615,191.843 77.5,194C 73.5145,201.352 71.8478,200.518 72.5,191.5 Z"/></g>
<g><path style="opacity:1" fill="#d70a12" d="M 142.5,194.5 C 145.304,193.362 148.304,193.195 151.5,194C 156.066,198.476 160.399,203.143 164.5,208C 153.827,208.255 143.16,207.921 132.5,207C 138.689,205.279 145.022,204.279 151.5,204C 148.368,200.855 145.368,197.688 142.5,194.5 Z"/></g>
<g><path style="opacity:1" fill="#de0913" d="M 61.5,206.5 C 58.5,207.167 55.5,207.833 52.5,208.5C 45.7972,208.559 39.1305,208.726 32.5,209C 37.5336,204.301 42.2002,199.301 46.5,194C 49.5,193.333 52.5,193.333 55.5,194C 52.536,197.966 49.2026,201.633 45.5,205C 50.8443,205.471 56.1777,205.971 61.5,206.5 Z"/></g>
<g><path style="opacity:1" fill="#ec5555" d="M 65.5,191.5 C 65.8333,191.5 66.1667,191.5 66.5,191.5C 66.2786,194.279 66.612,196.946 67.5,199.5C 66.5,199.5 65.5,199.5 64.5,199.5C 65.7489,197.171 65.0823,195.338 62.5,194C 63.4491,193.383 64.2825,193.549 65,194.5C 65.4828,193.552 65.6495,192.552 65.5,191.5 Z"/></g>
<g><path style="opacity:1" fill="#fcc8c8" d="M 84.5,191.5 C 86.7033,191.935 88.7033,191.935 90.5,191.5C 90.5,193.5 90.5,195.5 90.5,197.5C 89.7784,197.082 89.2784,196.416 89,195.5C 88.7508,196.624 88.2508,197.624 87.5,198.5C 86.5745,197.359 85.7412,197.359 85,198.5C 84.5034,196.19 84.3367,193.857 84.5,191.5 Z"/></g>
<g><path style="opacity:1" fill="#fed8d7" d="M 132.5,191.5 C 134.144,191.286 135.644,191.62 137,192.5C 136.698,194.974 136.532,197.308 136.5,199.5C 135.5,198.167 134.5,198.167 133.5,199.5C 132.52,196.914 132.187,194.247 132.5,191.5 Z"/></g>
<g><path style="opacity:1" fill="#f06f6d" d="M 82.5,191.5 C 83.1667,191.5 83.8333,191.5 84.5,191.5C 84.3367,193.857 84.5034,196.19 85,198.5C 85.7412,197.359 86.5745,197.359 87.5,198.5C 88.2508,197.624 88.7508,196.624 89,195.5C 89.2784,196.416 89.7784,197.082 90.5,197.5C 90.5,197.833 90.5,198.167 90.5,198.5C 86.3989,199.791 82.3989,199.791 78.5,198.5C 79.9311,197.918 81.2644,197.085 82.5,196C 80.0182,194.539 80.0182,193.039 82.5,191.5 Z"/></g>
<g><path style="opacity:1" fill="#5b0f0f" d="M 61.5,206.5 C 62.9778,206.238 64.3112,206.571 65.5,207.5C 61.2172,208.492 56.8839,208.826 52.5,208.5C 55.5,207.833 58.5,207.167 61.5,206.5 Z"/></g>
<g><path style="opacity:0.872" fill="#e1161a" d="M 68.5,210.5 C 88.5971,217.097 108.597,217.097 128.5,210.5C 132.273,211.103 135.939,211.77 139.5,212.5C 123.05,219.11 106.05,221.943 88.5,221C 78.6386,218.95 68.9719,216.117 59.5,212.5C 62.3447,211.656 65.3447,210.99 68.5,210.5 Z"/></g>
<g><path style="opacity:1" fill="#85b4c3" d="M 128.5,210.5 C 108.597,217.097 88.5971,217.097 68.5,210.5C 68.4701,209.503 68.9701,208.836 70,208.5C 88.2251,213.496 106.558,213.829 125,209.5C 126.385,209.514 127.551,209.848 128.5,210.5 Z"/></g>
</svg>
